<svg xmlns="http://www.w3.org/2000/svg">
    <symbol>
        <path id="telegram" fill-rule="evenodd" d="M23.112 4.494c.318-1.55-1.205-2.837-2.68-2.267L2.342 9.216c-1.647.637-1.72 2.941-.117 3.682l3.94 1.818 1.873 6.559a1 1 0 0 0 1.67.432l2.886-2.887 4.044 3.033a2 2 0 0 0 3.159-1.198zM3.063 11.082l18.09-6.99-3.315 16.161L13.1 16.7a1 1 0 0 0-1.307.093l-1.236 1.236.371-2.043 7.28-7.279a1 1 0 0 0-1.204-1.575L6.95 12.876zm5.114 3.397.606 2.123.233-1.281a1 1 0 0 1 .277-.528l2.22-2.22z" clip-rule="evenodd"/>
    </symbol>
    <symbol>
        <path id="tiktok" fill-rule="evenodd" d="M19.589 6.686a4.79 4.79 0 0 1-3.77-4.245V2h-3.445v13.672a2.896 2.896 0 0 1-5.201 1.743l-.002-.001.002.001a2.895 2.895 0 0 1 3.183-4.51v-3.5a6.329 6.329 0 0 0-5.394 10.692 6.33 6.33 0 0 0 10.857-4.424V8.687a8.2 8.2 0 0 0 4.773 1.526V6.79a5 5 0 0 1-1.003-.104"/>
    </symbol>
    <symbol>
    <path id="instagram" fill="currentColor" d="M12 2.163c3.204 0 3.584.012 4.85.07 3.252.148 4.771 1.691 4.919 4.919.058 1.265.069 1.645.069 4.849 0 3.205-.012 3.584-.069 4.849-.149 3.225-1.664 4.771-4.919 4.919-1.266.058-1.644.07-4.85.07-3.204 0-3.584-.012-4.849-.07-3.26-.149-4.771-1.699-4.919-4.92-.058-1.265-.07-1.644-.07-4.849 0-3.204.013-3.583.07-4.849.149-3.227 1.664-4.771 4.919-4.919 1.266-.057 1.645-.069 4.849-.069zm0-2.163c-3.259 0-3.667.014-4.947.072-4.358.2-6.78 2.618-6.98 6.98-.059 1.281-.073 1.689-.073 4.948 0 3.259.014 3.668.072 4.948.2 4.358 2.618 6.78 6.98 6.98 1.281.058 1.689.072 4.948.072 3.259 0 3.668-.014 4.948-.072 4.354-.2 6.782-2.618 6.979-6.98.059-1.28.073-1.689.073-4.948 0-3.259-.014-3.667-.072-4.947-.196-4.354-2.617-6.78-6.979-6.98-1.281-.059-1.69-.073-4.949-.073zm0 5.838c-3.403 0-6.162 2.759-6.162 6.162s2.759 6.163 6.162 6.163 6.162-2.759 6.162-6.163c0-3.403-2.759-6.162-6.162-6.162zm0 10.162c-2.209 0-4-1.79-4-4 0-2.209 1.791-4 4-4s4 1.791 4 4c0 2.21-1.791 4-4 4zm6.406-11.845c-.796 0-1.441.645-1.441 1.44s.645 1.44 1.441 1.44c.795 0 1.439-.645 1.439-1.44s-.644-1.44-1.439-1.44z"/>
    </symbol>   
</svg>