<svg xmlns="http://www.w3.org/2000/svg" style="display:none">

  <symbol id="timer" viewBox="0 0 15 16">
    <path d="m12.115 2.612.525-.812.85.554.484-.75L11.527.011l-.483.75.849.553-.512.788A7.4 7.4 0 0 0 7.502.999C3.387.999.041 4.352.041 8.475c0 4.12 3.346 7.474 7.461 7.474 4.113 0 7.461-3.354 7.461-7.474a7.46 7.46 0 0 0-2.848-5.863M7.502 14.011c-3.047 0-5.527-2.488-5.527-5.544 0-3.058 2.48-5.545 5.527-5.545s5.527 2.487 5.527 5.545c0 3.055-2.48 5.544-5.527 5.544"/>
  </symbol>

  <symbol id="calendar" viewBox="0 0 24 24">
    <path stroke="#6a6a6a" stroke-linecap="round" stroke-width="2" fill="none" d="M3 9h18M7 3v2m10-2v2M6 12h2m3 0h2m3 0h2M6 15h2m3 0h2m3 0h2M6 18h2m3 0h2m3 0h2M6.2 21h11.6c1.12 0 1.68 0 2.108-.218a2 2 0 0 0 .874-.874C21 19.48 21 18.92 21 17.8V8.2c0-1.12 0-1.68-.218-2.108a2 2 0 0 0-.874-.874C19.48 5 18.92 5 17.8 5H6.2c-1.12 0-1.68 0-2.108.218a2 2 0 0 0-.874.874C3 6.52 3 7.08 3 8.2v9.6c0 1.12 0 1.68.218 2.108a2 2 0 0 0 .874.874C4.52 21 5.08 21 6.2 21Z"/>
  </symbol>

  <symbol id="analytic" viewBox="0 0 1920 1824">
    <path d="M746.667 106.667h426.663V1493.33H746.667zM533.333 533.333H106.667v959.997h426.666zM1920 1706.67H0V1824h1920zm-106.67-960.003h-426.66v746.663h426.66z"/>
  </symbol>

</svg>